# 3ds Max Wavefront OBJ Exporter v0.97b - (c)2007 guruware
# File Created: 26.08.2021 17:23:19

mtllib warrior-sword-01.mtl

#
# object LOW_SWORD_USE
#

v  -1.1370 3.4469 -0.0000
v  0.0000 0.3255 -0.0000
v  0.0000 41.7947 0.7052
v  -1.3949 41.8236 0.0000
v  1.1370 3.4469 -0.0000
v  0.0000 41.7947 -0.7052
v  1.3949 41.8236 -0.0000
v  0.0000 42.0973 0.9119
v  -1.5086 42.0973 -0.0000
v  0.0000 42.0973 -0.9119
v  1.5086 42.0973 -0.0000
v  -0.9025 41.8706 3.6522
v  1.5281 41.8706 3.5248
v  1.5281 42.1342 3.5248
v  -0.9025 42.1342 3.6522
v  3.4196 41.8706 1.9931
v  3.4196 42.1342 1.9931
v  4.0495 41.8706 -0.3579
v  4.0495 42.1342 -0.3579
v  3.1773 41.8706 -2.6301
v  3.1773 42.1342 -2.6301
v  1.1360 41.8706 -3.9557
v  1.1360 42.1342 -3.9557
v  -1.2946 41.8706 -3.8284
v  -1.2946 42.1342 -3.8284
v  -3.1861 41.8706 -2.2966
v  -3.1861 42.1342 -2.2966
v  -3.8160 41.8706 0.0543
v  -3.8160 42.1342 0.0543
v  -2.9438 41.8706 2.3266
v  -2.9438 42.1342 2.3266
v  -3.1407 42.0052 0.0190
v  -2.6189 42.0052 -1.9283
v  -1.0522 42.0052 -3.1970
v  -0.7275 42.0052 2.9990
v  0.9610 42.0052 -3.3025
v  2.6517 42.0052 -2.2046
v  3.3742 42.0052 -0.3225
v  2.8524 42.0052 1.6248
v  1.2857 42.0052 2.8935
v  -2.4182 42.0052 1.9010
v  -0.7164 42.1968 2.9576
v  1.2704 42.1968 2.8535
v  0.5899 43.2581 1.0808
v  -0.2250 43.2581 1.1235
v  2.8165 42.1968 1.6015
v  1.2240 43.2581 0.5673
v  3.3314 42.1968 -0.3202
v  1.4352 43.2581 -0.2209
v  2.6185 42.1968 -2.1776
v  1.1428 43.2581 -0.9826
v  0.9499 42.1968 -3.2612
v  0.4585 43.2581 -1.4271
v  -1.0369 42.1968 -3.1570
v  -0.3564 43.2581 -1.3844
v  -2.5830 42.1968 -1.9050
v  -0.9905 43.2581 -0.8708
v  -3.0979 42.1968 0.0167
v  -1.2017 43.2581 -0.0827
v  -2.3850 42.1968 1.8741
v  -0.9093 43.2581 0.6791
v  0.5899 43.5278 1.0808
v  -0.2250 43.5278 1.1235
v  1.2240 43.5278 0.5673
v  1.4352 43.5278 -0.2209
v  1.1428 43.5278 -0.9826
v  0.4585 43.5278 -1.4271
v  -0.3564 43.5278 -1.3844
v  -0.9905 43.5278 -0.8708
v  -1.2017 43.5278 -0.0827
v  -0.9093 43.5278 0.6791
v  0.5236 43.5278 0.9081
v  -0.1771 43.5278 0.9448
v  1.0689 43.5278 0.4666
v  1.2505 43.5278 -0.2112
v  0.9990 43.5278 -0.8662
v  0.4106 43.5278 -1.2483
v  -0.2901 43.5278 -1.2116
v  -0.8354 43.5278 -0.7701
v  -1.0170 43.5278 -0.0923
v  -0.7655 43.5278 0.5627
v  0.4626 43.7570 0.7493
v  -0.1331 43.7570 0.7805
v  0.9262 43.7570 0.3739
v  1.0806 43.7570 -0.2023
v  0.8668 43.7570 -0.7592
v  0.3666 43.7570 -1.0840
v  -0.2291 43.7570 -1.0528
v  -0.6927 43.7570 -0.6774
v  -0.8471 43.7570 -0.1012
v  -0.6333 43.7570 0.4556
v  0.4626 55.2143 0.7493
v  -0.1331 55.2143 0.7805
v  0.9262 55.2143 0.3739
v  1.0806 55.2143 -0.2023
v  0.8668 55.2143 -0.7592
v  0.3666 55.2143 -1.0840
v  -0.2291 55.2143 -1.0528
v  -0.6927 55.2143 -0.6774
v  -0.8471 55.2143 -0.1012
v  -0.6333 55.2143 0.4556
v  0.6379 55.7681 1.2059
v  -0.2596 55.7681 1.2530
v  1.3364 55.7681 0.6403
v  1.5690 55.7681 -0.2279
v  1.2469 55.7681 -1.0670
v  0.4931 55.7681 -1.5565
v  -0.4044 55.7681 -1.5094
v  -1.1029 55.7681 -0.9438
v  -1.3355 55.7681 -0.0757
v  -1.0134 55.7681 0.7634
v  0.4059 56.3444 0.6016
v  -0.0921 56.3444 0.6277
v  0.7935 56.3444 0.2877
v  0.9226 56.3444 -0.1940
v  0.7439 56.3444 -0.6596
v  0.3256 56.3444 -0.9312
v  -0.1724 56.3444 -0.9051
v  -0.5600 56.3444 -0.5912
v  -0.6891 56.3444 -0.1095
v  -0.5104 56.3444 0.3561
v  0.6297 55.9688 -0.2247
v  1.0865 61.3511 -1.1129
v  0.4496 55.9688 -0.0721
v  0.7292 61.4431 -0.4482
v  0.3296 55.9688 0.0297
v  0.4861 61.4174 -0.0644
v  0.2095 55.9688 0.1315
v  0.2392 61.3220 0.2718
v  0.0295 55.9688 0.2841
v  -0.1384 61.0484 0.6871
v  1.4005 66.7334 -1.8967
v  0.9228 67.1014 -0.7900
v  0.5949 66.9986 -0.1690
v  0.2593 66.6171 0.3587
v  -0.2584 65.5225 0.9750
v  1.5719 72.1156 -2.5761
v  1.0307 72.9438 -1.0976
v  0.6559 72.7123 -0.2840
v  0.2698 71.8540 0.3919
v  -0.3303 69.3912 1.1477
v  1.6006 77.4979 -3.1512
v  1.0527 78.9702 -1.3710
v  0.6691 78.5587 -0.4095
v  0.2707 77.0328 0.3716
v  -0.3543 72.6544 1.2053
v  0.2203 61.4298 -0.8028
v  0.2180 55.9688 -0.1592
v  -0.0208 61.4390 -0.3953
v  0.0979 55.9688 -0.0574
v  -0.2658 61.3784 -0.0353
v  -0.0221 55.9688 0.0444
v  -0.5146 61.2482 0.2772
v  -0.1422 55.9688 0.1461
v  0.2142 67.0484 -1.3581
v  -0.1100 67.0848 -0.6904
v  -0.4418 66.8426 -0.1161
v  -0.7812 66.3219 0.3649
v  0.1996 72.8245 -1.8252
v  -0.1697 72.9064 -0.9428
v  -0.5501 72.3615 -0.1980
v  -0.9418 71.1898 0.4091
v  0.1765 78.7581 -2.2040
v  -0.1998 78.9038 -1.1524
v  -0.5908 77.9351 -0.2811
v  -0.9964 75.8519 0.4099
# 166 vertices

vn -0.1149 -0.0473 0.9922
vn -0.0975 -0.0481 0.9941
vn -0.7163 -0.0077 0.6977
vn -0.7282 -0.0066 0.6854
vn 0.1149 -0.0473 -0.9922
vn 0.0975 -0.0481 -0.9941
vn 0.7163 -0.0077 -0.6977
vn 0.7282 -0.0066 -0.6854
vn -0.1149 -0.0473 -0.9922
vn -0.7282 -0.0066 -0.6854
vn -0.7163 -0.0077 -0.6977
vn -0.0975 -0.0481 -0.9941
vn 0.1149 -0.0473 0.9922
vn 0.7282 -0.0066 0.6854
vn 0.7163 -0.0077 0.6977
vn 0.0975 -0.0481 0.9941
vn 0.0103 -0.8791 0.4765
vn -0.8718 -0.4899 -0.0000
vn -0.8478 -0.5303 0.0000
vn 0.0378 -0.8839 0.4662
vn -0.0000 -0.8689 -0.4950
vn 0.8541 -0.5193 0.0269
vn 0.8587 -0.5104 0.0448
vn 0.0000 -0.8891 -0.4576
vn -0.3149 -0.6313 0.7087
vn 0.4202 -0.6416 0.6417
vn 0.4299 0.6085 0.6670
vn -0.3209 0.6004 0.7325
vn 0.6746 -0.7033 0.2244
vn 0.7209 0.6469 0.2486
vn 0.6921 -0.7216 -0.0179
vn 0.7576 0.6524 -0.0207
vn 0.6619 -0.6959 -0.2786
vn 0.7019 0.6437 -0.3048
vn 0.3149 -0.6313 -0.7087
vn 0.3209 0.6004 -0.7325
vn -0.4202 -0.6416 -0.6417
vn -0.4299 0.6085 -0.6670
vn -0.6746 -0.7033 -0.2244
vn -0.7209 0.6469 -0.2486
vn -0.6921 -0.7216 0.0179
vn -0.7576 0.6524 0.0207
vn -0.6619 -0.6959 0.2786
vn -0.7019 0.6437 0.3048
vn 0.0800 -0.9968 -0.0014
vn 0.0740 -0.9971 0.0177
vn 0.0395 -0.9984 0.0412
vn 0.0295 -0.9986 -0.0444
vn -0.0295 -0.9986 0.0444
vn -0.0708 -0.9973 0.0215
vn -0.0800 -0.9968 0.0014
vn -0.0740 -0.9971 -0.0177
vn -0.0395 -0.9984 -0.0412
vn 0.0708 -0.9973 -0.0215
vn -0.0364 0.9959 0.0834
vn 0.0533 0.9950 0.0845
vn 0.4042 0.7198 0.5643
vn -0.2938 0.7444 0.5996
vn 0.1642 0.9845 0.0622
vn 0.7601 0.6048 0.2378
vn 0.2104 0.9776 -0.0065
vn 0.8125 0.5826 -0.0198
vn 0.1477 0.9865 -0.0700
vn 0.7328 0.6158 -0.2895
vn 0.0364 0.9959 -0.0834
vn 0.2938 0.7444 -0.5996
vn -0.0533 0.9950 -0.0845
vn -0.4042 0.7198 -0.5643
vn -0.1642 0.9845 -0.0622
vn -0.7601 0.6048 -0.2378
vn -0.2104 0.9776 0.0065
vn -0.8125 0.5826 0.0198
vn -0.1477 0.9865 0.0700
vn -0.7328 0.6158 0.2895
vn 0.4270 0.6188 0.6594
vn -0.3190 0.6099 0.7254
vn 0.7071 0.6646 0.2415
vn 0.7383 0.6742 -0.0199
vn 0.6900 0.6600 -0.2971
vn 0.3190 0.6099 -0.7254
vn -0.4270 0.6188 -0.6594
vn -0.7071 0.6646 -0.2415
vn -0.7383 0.6742 0.0199
vn -0.6900 0.6600 0.2971
vn 0.0821 0.9853 0.1500
vn -0.0540 0.9879 0.1453
vn 0.2769 0.9544 0.1118
vn 0.3484 0.9373 -0.0112
vn 0.2494 0.9601 -0.1268
vn 0.0540 0.9879 -0.1453
vn -0.0821 0.9853 -0.1500
vn -0.2769 0.9544 -0.1118
vn -0.3484 0.9373 0.0112
vn -0.2494 0.9601 0.1268
vn 0.4887 0.5724 0.6584
vn -0.3618 0.6043 0.7099
vn 0.8644 0.4269 0.2657
vn 0.9172 0.3978 -0.0222
vn 0.8370 0.4409 -0.3241
vn 0.3618 0.6043 -0.7099
vn -0.4887 0.5724 -0.6584
vn -0.8644 0.4269 -0.2657
vn -0.9172 0.3978 0.0222
vn -0.8370 0.4409 0.3241
vn 0.4714 -0.6104 0.6366
vn -0.3476 -0.6412 0.6841
vn 0.8447 -0.4683 0.2593
vn 0.8977 -0.4401 -0.0216
vn 0.8171 -0.4820 -0.3162
vn 0.3476 -0.6412 -0.6841
vn -0.4714 -0.6104 -0.6366
vn -0.8447 -0.4683 -0.2593
vn -0.8977 -0.4401 0.0216
vn -0.8171 -0.4820 0.3162
vn 0.4780 0.0330 0.8777
vn -0.3468 0.0311 0.9374
vn 0.9246 0.0488 0.3777
vn 0.9980 0.0534 -0.0327
vn 0.8886 0.0467 -0.4564
vn 0.3468 0.0311 -0.9374
vn -0.4780 0.0330 -0.8777
vn -0.9246 0.0488 -0.3777
vn -0.9980 0.0534 0.0327
vn -0.8886 0.0467 0.4564
vn 0.1615 0.9714 0.1738
vn -0.1211 0.9746 0.1886
vn 0.2901 0.9542 0.0729
vn 0.3120 0.9501 -0.0060
vn 0.2790 0.9562 -0.0885
vn 0.1211 0.9746 -0.1886
vn -0.1615 0.9714 -0.1738
vn -0.2901 0.9542 -0.0729
vn -0.3120 0.9501 0.0060
vn -0.2790 0.9562 0.0885
vn 1.0000 0.0000 -0.0000
vn -0.3435 -0.3025 -0.8891
vn -0.6060 -0.2482 -0.7557
vn -0.0924 -0.1754 -0.9801
vn -0.1480 -0.1642 -0.9753
vn -0.8122 0.1618 0.5606
vn -0.6083 0.1925 0.7700
vn -0.0863 -0.0468 -0.9952
vn -0.0811 -0.0460 -0.9956
vn -0.8019 0.0662 0.5938
vn -0.6187 0.0625 0.7831
vn -0.0791 0.0634 -0.9948
vn -0.0197 0.0604 -0.9980
vn -0.7846 -0.0242 0.6195
vn -0.6190 -0.0538 0.7835
vn -0.9161 -0.1099 0.3855
vn -0.8506 -0.1516 0.5035
vn -0.7088 -0.1956 -0.6777
vn -0.2006 -0.1405 -0.9695
vn -0.8532 0.1193 0.5077
vn -0.1047 -0.0482 -0.9933
vn -0.8364 0.0528 0.5456
vn -0.0219 0.0337 -0.9992
vn -0.8169 -0.0108 0.5766
vn -0.9336 -0.0788 0.3494
vn -0.7824 -0.1578 -0.6024
vn -0.2650 -0.1182 -0.9570
vn -0.8755 0.0853 0.4755
vn -0.1430 -0.0498 -0.9885
vn -0.8545 0.0428 0.5177
vn -0.0359 0.0054 -0.9993
vn -0.8321 0.0024 0.5546
vn -0.9401 -0.0463 0.3376
vn -0.8362 -0.1539 -0.5263
vn -0.3377 -0.1188 -0.9337
vn -0.8907 0.0730 0.4487
vn -0.1883 -0.0593 -0.9803
vn -0.8673 0.0410 0.4962
vn -0.0557 -0.0111 -0.9984
vn -0.8414 0.0128 0.5402
vn -0.9393 -0.0197 0.3426
vn -0.9836 -0.0734 -0.1648
vn -0.9978 -0.0661 -0.0033
vn -0.9182 -0.0960 -0.3843
vn -0.9705 -0.1311 -0.2024
vn -0.9132 -0.0711 -0.4012
vn -0.9498 -0.1258 -0.2863
vn -0.8385 -0.0409 -0.5433
vn -0.8523 -0.0711 -0.5181
vn -0.9893 -0.0525 -0.1358
vn -0.9177 -0.0780 -0.3896
vn -0.9083 -0.0550 -0.4147
vn -0.8293 -0.0293 -0.5581
vn -0.9935 -0.0395 -0.1066
vn -0.9236 -0.0618 -0.3782
vn -0.9109 -0.0408 -0.4107
vn -0.8326 -0.0155 -0.5536
vn -0.9986 -0.0333 -0.0415
vn -0.8861 -0.0684 -0.4584
vn -0.7169 -0.0505 -0.6954
vn -0.3465 -0.0142 -0.9379
# 195 vertex normals

vt 0.8915 0.0872 0.0000
vt 0.9181 0.0334 0.0000
vt 0.9181 0.7497 0.0000
vt 0.8706 0.7480 0.0000
vt 0.7764 0.0827 0.0000
vt 0.8031 0.0286 0.0000
vt 0.8031 0.7485 0.0000
vt 0.7562 0.7468 0.0000
vt 0.8299 0.0827 0.0000
vt 0.8501 0.7468 0.0000
vt 0.9447 0.0872 0.0000
vt 0.9656 0.7480 0.0000
vt 0.9181 0.7586 0.0000
vt 0.8687 0.7523 0.0000
vt 0.8031 0.7575 0.0000
vt 0.7542 0.7511 0.0000
vt 0.8521 0.7511 0.0000
vt 0.9669 0.7520 0.0000
vt 0.8739 0.8130 0.0000
vt 0.9610 0.8136 0.0000
vt 0.9608 0.8352 0.0000
vt 0.8737 0.8346 0.0000
vt 0.1965 0.8081 0.0000
vt 0.2431 0.8084 0.0000
vt 0.2429 0.8300 0.0000
vt 0.1964 0.8296 0.0000
vt 0.3211 0.8090 0.0000
vt 0.3209 0.8305 0.0000
vt 0.4003 0.8096 0.0000
vt 0.4002 0.8311 0.0000
vt 0.4794 0.8101 0.0000
vt 0.4792 0.8317 0.0000
vt 0.5584 0.8107 0.0000
vt 0.5583 0.8323 0.0000
vt 0.6379 0.8113 0.0000
vt 0.6377 0.8328 0.0000
vt 0.7176 0.8119 0.0000
vt 0.7174 0.8334 0.0000
vt 0.7964 0.8124 0.0000
vt 0.7963 0.8340 0.0000
vt 0.5735 0.2136 0.0000
vt 0.5200 0.1885 0.0000
vt 0.4915 0.1368 0.0000
vt 0.6719 0.1593 0.0000
vt 0.4988 0.0781 0.0000
vt 0.5392 0.0350 0.0000
vt 0.5972 0.0238 0.0000
vt 0.6507 0.0489 0.0000
vt 0.6793 0.1007 0.0000
vt 0.6315 0.2024 0.0000
vt 0.8733 0.8931 0.0000
vt 0.9604 0.8938 0.0000
vt 0.9598 0.9793 0.0000
vt 0.8727 0.9786 0.0000
vt 0.2425 0.8885 0.0000
vt 0.2419 0.9740 0.0000
vt 0.1953 0.9737 0.0000
vt 0.1959 0.8882 0.0000
vt 0.3205 0.8891 0.0000
vt 0.3199 0.9746 0.0000
vt 0.3997 0.8897 0.0000
vt 0.3991 0.9752 0.0000
vt 0.4788 0.8903 0.0000
vt 0.4782 0.9758 0.0000
vt 0.5578 0.8908 0.0000
vt 0.5572 0.9763 0.0000
vt 0.6373 0.8914 0.0000
vt 0.6367 0.9769 0.0000
vt 0.7170 0.8920 0.0000
vt 0.7164 0.9775 0.0000
vt 0.7959 0.8926 0.0000
vt 0.7952 0.9781 0.0000
vt 0.6987 0.0969 0.0000
vt 0.6899 0.1677 0.0000
vt 0.6411 0.2198 0.0000
vt 0.5710 0.2333 0.0000
vt 0.5065 0.2030 0.0000
vt 0.4720 0.1405 0.0000
vt 0.4808 0.0697 0.0000
vt 0.5296 0.0176 0.0000
vt 0.5997 0.0042 0.0000
vt 0.6643 0.0345 0.0000
vt 0.2175 0.4193 0.0000
vt 0.2322 0.4193 0.0000
vt 0.2322 0.4225 0.0000
vt 0.2175 0.4225 0.0000
vt 0.0262 0.4193 0.0000
vt 0.0582 0.4193 0.0000
vt 0.0582 0.4225 0.0000
vt 0.0262 0.4225 0.0000
vt 0.0819 0.4193 0.0000
vt 0.0819 0.4225 0.0000
vt 0.0997 0.4193 0.0000
vt 0.0997 0.4225 0.0000
vt 0.1106 0.4193 0.0000
vt 0.1106 0.4225 0.0000
vt 0.1218 0.4193 0.0000
vt 0.1218 0.4225 0.0000
vt 0.1394 0.4193 0.0000
vt 0.1394 0.4225 0.0000
vt 0.1627 0.4193 0.0000
vt 0.1627 0.4225 0.0000
vt 0.1848 0.4193 0.0000
vt 0.1848 0.4225 0.0000
vt 0.2322 0.4372 0.0000
vt 0.2175 0.4372 0.0000
vt 0.0582 0.4372 0.0000
vt 0.0262 0.4372 0.0000
vt 0.0819 0.4372 0.0000
vt 0.0997 0.4372 0.0000
vt 0.1106 0.4372 0.0000
vt 0.1218 0.4372 0.0000
vt 0.1394 0.4372 0.0000
vt 0.1627 0.4372 0.0000
vt 0.1848 0.4372 0.0000
vt 0.2322 0.4607 0.3768
vt 0.2175 0.4607 0.0000
vt 0.0582 0.4607 0.0000
vt 0.0262 0.4607 0.3768
vt 0.0819 0.4607 0.0000
vt 0.0997 0.4607 0.0000
vt 0.1106 0.4607 0.0000
vt 0.1218 0.4607 0.0000
vt 0.1394 0.4607 0.0000
vt 0.1627 0.4607 0.0000
vt 0.1848 0.4607 0.0000
vt 0.2427 0.4927 0.0000
vt 0.2626 0.4927 0.0000
vt 0.2626 0.7728 0.0000
vt 0.2427 0.7728 0.0000
vt 0.2928 0.4927 0.0000
vt 0.2928 0.7728 0.0000
vt 0.3332 0.4927 0.5007
vt 0.3332 0.7728 0.0000
vt 0.0175 0.4927 0.5007
vt 0.0569 0.4927 0.0000
vt 0.0569 0.7728 0.0000
vt 0.0175 0.7728 0.0000
vt 0.0849 0.4927 0.0000
vt 0.0849 0.7728 0.0000
vt 0.1047 0.4927 0.0000
vt 0.1047 0.7728 0.0000
vt 0.1350 0.4927 0.0000
vt 0.1350 0.7728 0.0000
vt 0.1754 0.4927 0.0000
vt 0.1754 0.7728 0.0000
vt 0.2147 0.4927 0.0000
vt 0.2147 0.7728 0.0000
vt 0.4323 0.5688 0.0000
vt 0.4209 0.5688 0.0000
vt 0.4209 0.5230 0.0000
vt 0.4323 0.5230 0.0000
vt 0.6835 0.5688 0.0000
vt 0.6396 0.5688 0.0000
vt 0.6396 0.5230 0.0000
vt 0.6835 0.5230 0.0000
vt 0.5953 0.5688 0.0000
vt 0.5953 0.5230 0.0000
vt 0.5549 0.5688 0.0000
vt 0.5549 0.5230 0.0000
vt 0.5289 0.5688 0.0000
vt 0.5289 0.5230 0.0000
vt 0.5137 0.5688 0.0000
vt 0.5137 0.5230 0.0000
vt 0.4992 0.5688 0.0000
vt 0.4992 0.5230 0.0000
vt 0.4781 0.5688 0.0000
vt 0.4781 0.5230 0.0000
vt 0.4527 0.5688 0.0000
vt 0.4527 0.5230 0.0000
vt 0.4209 0.4771 0.0000
vt 0.4323 0.4771 0.0000
vt 0.6396 0.4771 0.0000
vt 0.6835 0.4771 0.0000
vt 0.5953 0.4771 0.0000
vt 0.5549 0.4771 0.0000
vt 0.5289 0.4771 0.0000
vt 0.5137 0.4771 0.0000
vt 0.4992 0.4771 0.0000
vt 0.4781 0.4771 0.0000
vt 0.4527 0.4771 0.0000
vt 0.4988 0.6757 0.0000
vt 0.5230 0.6861 0.0000
vt 0.5364 0.7086 0.0000
vt 0.4553 0.7006 0.0000
vt 0.5337 0.7345 0.0000
vt 0.5160 0.7539 0.0000
vt 0.4902 0.7594 0.0000
vt 0.4659 0.7489 0.0000
vt 0.4526 0.7264 0.0000
vt 0.4729 0.6812 0.0000
vt 0.0274 0.0136 0.0000
vt 0.0638 0.0136 0.0000
vt 0.0638 0.1238 0.0000
vt 0.0274 0.1238 0.0000
vt 0.1723 0.0136 0.0000
vt 0.1723 0.1238 0.0000
vt 0.1409 0.1238 0.0000
vt 0.1409 0.0136 0.0000
vt 0.2809 0.0136 0.0000
vt 0.2809 0.1238 0.0000
vt 0.2503 0.1238 0.0000
vt 0.2503 0.0136 0.0000
vt 0.3755 0.0136 0.0000
vt 0.3755 0.1238 0.0000
vt 0.3510 0.1238 0.0000
vt 0.3510 0.0136 0.0000
vt 0.4476 0.0136 0.0000
vt 0.4476 0.1238 0.0000
vt 0.4347 0.1238 0.0000
vt 0.4347 0.0136 0.0000
vt 0.0638 0.2244 0.0000
vt 0.0274 0.2244 0.0000
vt 0.1723 0.2244 0.0000
vt 0.1409 0.2244 0.0000
vt 0.2809 0.2244 0.0000
vt 0.2503 0.2244 0.0000
vt 0.3755 0.2244 0.0000
vt 0.3510 0.2244 0.0000
vt 0.4476 0.2244 0.0000
vt 0.4347 0.2244 0.0000
vt 0.0638 0.3178 0.0000
vt 0.0274 0.3178 0.0000
vt 0.1723 0.3178 0.0000
vt 0.1409 0.3178 0.0000
vt 0.2809 0.3178 0.0000
vt 0.2503 0.3178 0.0000
vt 0.3755 0.3178 0.0000
vt 0.3510 0.3178 0.0000
vt 0.4476 0.3178 0.0000
vt 0.4347 0.3178 0.0000
vt 0.0638 0.3762 0.0000
vt 0.0274 0.3762 0.0000
vt 0.1723 0.3762 0.0000
vt 0.1409 0.3762 0.0000
vt 0.2809 0.3762 0.0000
vt 0.2503 0.3762 0.0000
vt 0.3755 0.3762 0.0000
vt 0.3510 0.3762 0.0000
vt 0.4476 0.3762 0.0000
vt 0.4347 0.3762 0.0000
vt 0.1211 0.1238 0.0000
vt 0.1211 0.0136 0.0000
vt 0.2284 0.1238 0.0000
vt 0.2284 0.0136 0.0000
vt 0.3325 0.1238 0.0000
vt 0.3325 0.0136 0.0000
vt 0.4231 0.1238 0.0000
vt 0.4231 0.0136 0.0000
vt 0.1211 0.2244 0.0000
vt 0.2284 0.2244 0.0000
vt 0.3325 0.2244 0.0000
vt 0.4231 0.2244 0.0000
vt 0.1211 0.3178 0.0000
vt 0.2284 0.3178 0.0000
vt 0.3325 0.3178 0.0000
vt 0.4231 0.3178 0.0000
vt 0.1211 0.3762 0.0000
vt 0.2284 0.3762 0.0000
vt 0.3325 0.3762 0.0000
vt 0.4231 0.3762 0.0000
# 261 texture coords

g LOW_SWORD_USE
usemtl 01___Default
s 1
f 1/1/1 2/2/2 3/3/3 4/4/4 
s 4
f 5/5/5 2/6/6 6/7/7 7/8/8 
s 8
f 1/9/9 4/10/10 6/7/11 2/6/12 
s 16
f 5/11/13 7/12/14 3/3/15 2/2/16 
s 2
f 8/13/17 9/14/18 4/4/19 3/3/20 
f 10/15/21 11/16/22 7/8/23 6/7/24 
f 4/10/19 9/17/18 10/15/21 6/7/24 
f 11/18/22 8/13/17 3/3/20 7/12/23 
s 1
f 12/19/25 13/20/26 14/21/27 15/22/28 
f 13/23/26 16/24/29 17/25/30 14/26/27 
f 16/24/29 18/27/31 19/28/32 17/25/30 
f 18/27/31 20/29/33 21/30/34 19/28/32 
f 20/29/33 22/31/35 23/32/36 21/30/34 
f 22/31/35 24/33/37 25/34/38 23/32/36 
f 24/33/37 26/35/39 27/36/40 25/34/38 
f 26/35/39 28/37/41 29/38/42 27/36/40 
f 28/37/41 30/39/43 31/40/44 29/38/42 
f 30/39/43 12/19/25 15/22/28 31/40/44 
f 32/41/45 33/42/46 34/43/47 35/44/48 
f 34/43/47 36/45/49 37/46/50 35/44/48 
f 37/46/50 38/47/51 39/48/52 35/44/48 
f 39/48/52 40/49/53 35/44/48 
f 41/50/54 32/41/45 35/44/48 
f 42/51/55 43/52/56 44/53/57 45/54/58 
f 46/55/59 47/56/60 44/57/57 43/58/56 
f 48/59/61 49/60/62 47/56/60 46/55/59 
f 50/61/63 51/62/64 49/60/62 48/59/61 
f 52/63/65 53/64/66 51/62/64 50/61/63 
f 54/65/67 55/66/68 53/64/66 52/63/65 
f 56/67/69 57/68/70 55/66/68 54/65/67 
f 58/69/71 59/70/72 57/68/70 56/67/69 
f 60/71/73 61/72/74 59/70/72 58/69/71 
f 42/51/55 45/54/58 61/72/74 60/71/73 
f 13/73/26 12/74/25 35/44/48 40/49/53 
f 12/74/25 30/75/43 41/50/54 35/44/48 
f 30/75/43 28/76/41 32/41/45 41/50/54 
f 28/76/41 26/77/39 33/42/46 32/41/45 
f 26/77/39 24/78/37 34/43/47 33/42/46 
f 24/78/37 22/79/35 36/45/49 34/43/47 
f 22/79/35 20/80/33 37/46/50 36/45/49 
f 20/80/33 18/81/31 38/47/51 37/46/50 
f 18/81/31 16/82/29 39/48/52 38/47/51 
f 16/82/29 13/73/26 40/49/53 39/48/52 
f 42/51/55 15/22/28 14/21/27 43/52/56 
f 43/58/56 14/26/27 17/25/30 46/55/59 
f 46/55/59 17/25/30 19/28/32 48/59/61 
f 48/59/61 19/28/32 21/30/34 50/61/63 
f 50/61/63 21/30/34 23/32/36 52/63/65 
f 52/63/65 23/32/36 25/34/38 54/65/67 
f 54/65/67 25/34/38 27/36/40 56/67/69 
f 56/67/69 27/36/40 29/38/42 58/69/71 
f 58/69/71 29/38/42 31/40/44 60/71/73 
f 60/71/73 31/40/44 15/22/28 42/51/55 
f 45/83/58 44/84/57 62/85/75 63/86/76 
f 44/87/57 47/88/60 64/89/77 62/90/75 
f 47/88/60 49/91/62 65/92/78 64/89/77 
f 49/91/62 51/93/64 66/94/79 65/92/78 
f 51/93/64 53/95/66 67/96/80 66/94/79 
f 53/95/66 55/97/68 68/98/81 67/96/80 
f 55/97/68 57/99/70 69/100/82 68/98/81 
f 57/99/70 59/101/72 70/102/83 69/100/82 
f 59/101/72 61/103/74 71/104/84 70/102/83 
f 61/103/74 45/83/58 63/86/76 71/104/84 
f 63/86/76 62/85/75 72/105/85 73/106/86 
f 62/90/75 64/89/77 74/107/87 72/108/85 
f 64/89/77 65/92/78 75/109/88 74/107/87 
f 65/92/78 66/94/79 76/110/89 75/109/88 
f 66/94/79 67/96/80 77/111/90 76/110/89 
f 67/96/80 68/98/81 78/112/91 77/111/90 
f 68/98/81 69/100/82 79/113/92 78/112/91 
f 69/100/82 70/102/83 80/114/93 79/113/92 
f 70/102/83 71/104/84 81/115/94 80/114/93 
f 71/104/84 63/86/76 73/106/86 81/115/94 
f 73/106/86 72/105/85 82/116/95 83/117/96 
f 72/108/85 74/107/87 84/118/97 82/119/95 
f 74/107/87 75/109/88 85/120/98 84/118/97 
f 75/109/88 76/110/89 86/121/99 85/120/98 
f 76/110/89 77/111/90 87/122/100 86/121/99 
f 77/111/90 78/112/91 88/123/101 87/122/100 
f 78/112/91 79/113/92 89/124/102 88/123/101 
f 79/113/92 80/114/93 90/125/103 89/124/102 
f 80/114/93 81/115/94 91/126/104 90/125/103 
f 81/115/94 73/106/86 83/117/96 91/126/104 
f 83/127/96 82/128/95 92/129/105 93/130/106 
f 82/128/95 84/131/97 94/132/107 92/129/105 
f 84/131/97 85/133/98 95/134/108 94/132/107 
f 85/135/98 86/136/99 96/137/109 95/138/108 
f 86/136/99 87/139/100 97/140/110 96/137/109 
f 87/139/100 88/141/101 98/142/111 97/140/110 
f 88/141/101 89/143/102 99/144/112 98/142/111 
f 89/143/102 90/145/103 100/146/113 99/144/112 
f 90/145/103 91/147/104 101/148/114 100/146/113 
f 91/147/104 83/127/96 93/130/106 101/148/114 
f 93/149/106 92/150/105 102/151/115 103/152/116 
f 92/153/105 94/154/107 104/155/117 102/156/115 
f 94/154/107 95/157/108 105/158/118 104/155/117 
f 95/157/108 96/159/109 106/160/119 105/158/118 
f 96/159/109 97/161/110 107/162/120 106/160/119 
f 97/161/110 98/163/111 108/164/121 107/162/120 
f 98/163/111 99/165/112 109/166/122 108/164/121 
f 99/165/112 100/167/113 110/168/123 109/166/122 
f 100/167/113 101/169/114 111/170/124 110/168/123 
f 101/169/114 93/149/106 103/152/116 111/170/124 
f 103/152/116 102/151/115 112/171/125 113/172/126 
f 102/156/115 104/155/117 114/173/127 112/174/125 
f 104/155/117 105/158/118 115/175/128 114/173/127 
f 105/158/118 106/160/119 116/176/129 115/175/128 
f 106/160/119 107/162/120 117/177/130 116/176/129 
f 107/162/120 108/164/121 118/178/131 117/177/130 
f 108/164/121 109/166/122 119/179/132 118/178/131 
f 109/166/122 110/168/123 120/180/133 119/179/132 
f 110/168/123 111/170/124 121/181/134 120/180/133 
f 111/170/124 103/152/116 113/172/126 121/181/134 
f 114/182/127 115/183/128 116/184/129 113/185/126 
f 116/184/129 117/186/130 118/187/131 113/185/126 
f 118/187/131 119/188/132 120/189/133 113/185/126 
f 120/189/133 121/190/134 113/185/126 
f 112/191/125 114/182/127 113/185/126 
s 2
f 122/192/135 122/193/136 123/194/137 123/195/135 
f 124/196/138 125/197/139 125/198/140 124/199/141 
f 126/200/142 127/201/143 127/202/144 126/203/145 
f 128/204/146 129/205/147 129/206/148 128/207/149 
f 130/208/135 131/209/135 131/210/150 130/211/151 
f 123/195/135 123/194/137 132/212/152 132/213/135 
s 3
f 125/197/139 133/214/153 133/215/154 125/198/140 
f 127/201/143 134/216/155 134/217/156 127/202/144 
f 129/205/147 135/218/157 135/219/158 129/206/148 
s 2
f 131/209/135 136/220/135 136/221/159 131/210/150 
f 132/213/135 132/212/152 137/222/160 137/223/135 
s 3
f 133/214/153 138/224/161 138/225/162 133/215/154 
f 134/216/155 139/226/163 139/227/164 134/217/156 
f 135/218/157 140/228/165 140/229/166 135/219/158 
s 2
f 136/220/135 141/230/135 141/231/167 136/221/159 
f 137/223/135 137/222/160 142/232/168 142/233/135 
f 138/224/161 143/234/169 143/235/170 138/225/162 
f 139/226/163 144/236/171 144/237/172 139/227/164 
f 140/228/165 145/238/173 145/239/174 140/229/166 
f 141/230/135 146/240/135 146/241/175 141/231/167 
f 147/242/176 123/194/137 122/193/136 148/243/177 
f 149/244/178 125/197/139 124/196/138 150/245/179 
f 148/243/177 124/199/141 125/198/140 147/242/176 
f 151/246/180 127/201/143 126/200/142 152/247/181 
f 150/245/179 126/203/145 127/202/144 149/244/178 
f 153/248/182 129/205/147 128/204/146 154/249/183 
f 152/247/181 128/207/149 129/206/148 151/246/180 
f 154/249/183 130/211/151 131/210/150 153/248/182 
s 3
f 155/250/184 132/212/152 123/194/137 147/242/176 
f 156/251/185 133/214/153 125/197/139 149/244/178 
f 147/242/176 125/198/140 133/215/154 155/250/184 
f 157/252/186 134/216/155 127/201/143 151/246/180 
f 149/244/178 127/202/144 134/217/156 156/251/185 
f 158/253/187 135/218/157 129/205/147 153/248/182 
f 151/246/180 129/206/148 135/219/158 157/252/186 
f 153/248/182 131/210/150 136/221/159 158/253/187 
f 159/254/188 137/222/160 132/212/152 155/250/184 
f 160/255/189 138/224/161 133/214/153 156/251/185 
f 155/250/184 133/215/154 138/225/162 159/254/188 
f 161/256/190 139/226/163 134/216/155 157/252/186 
f 156/251/185 134/217/156 139/227/164 160/255/189 
f 162/257/191 140/228/165 135/218/157 158/253/187 
f 157/252/186 135/219/158 140/229/166 161/256/190 
f 158/253/187 136/221/159 141/231/167 162/257/191 
s 2
f 163/258/192 142/232/168 137/222/160 159/254/188 
f 164/259/193 143/234/169 138/224/161 160/255/189 
f 159/254/188 138/225/162 143/235/170 163/258/192 
f 165/260/194 144/236/171 139/226/163 161/256/190 
f 160/255/189 139/227/164 144/237/172 164/259/193 
f 166/261/195 145/238/173 140/228/165 162/257/191 
f 161/256/190 140/229/166 145/239/174 165/260/194 
f 162/257/191 141/231/167 146/241/175 166/261/195 
# 166 polygons - 4 triangles

